<mxfile host="app.diagrams.net" modified="2022-10-26T02:54:26.004Z" agent="5.0 (X11; Linux x86_64) AppleWebKit/537.36 (KHTML, like Gecko) Chrome/106.0.0.0 Safari/537.36" etag="hC8H2FR6kTRKOpJIhhXy" version="20.5.1" type="github">
  <diagram name="Page-1" id="74e2e168-ea6b-b213-b513-2b3c1d86103e">
    <mxGraphModel dx="868" dy="458" grid="1" gridSize="10" guides="1" tooltips="1" connect="1" arrows="1" fold="1" page="1" pageScale="1" pageWidth="1100" pageHeight="850" background="none" math="0" shadow="0">
      <root>
        <mxCell id="0" />
        <mxCell id="1" parent="0" />
        <mxCell id="iIzhdWrlAodf3DmETpUd-10" value="User click sign in with google button in sign in page" style="rounded=1;whiteSpace=wrap;html=1;shadow=0;labelBackgroundColor=none;strokeWidth=1;fontFamily=Courier New;fontSize=8;align=center;" parent="1" vertex="1">
          <mxGeometry x="315" y="90" width="100" height="60" as="geometry" />
        </mxCell>
        <mxCell id="iIzhdWrlAodf3DmETpUd-11" value="Client Decode JWT to get email" style="rounded=1;whiteSpace=wrap;html=1;shadow=0;labelBackgroundColor=none;strokeWidth=1;fontFamily=Courier New;fontSize=8;align=center;" parent="1" vertex="1">
          <mxGeometry x="315" y="263" width="100" height="60" as="geometry" />
        </mxCell>
        <mxCell id="iIzhdWrlAodf3DmETpUd-12" value="Client call auth/client-is-registered" style="rounded=1;whiteSpace=wrap;html=1;shadow=0;labelBackgroundColor=none;strokeWidth=1;fontFamily=Courier New;fontSize=8;align=center;" parent="1" vertex="1">
          <mxGeometry x="315" y="338" width="100" height="60" as="geometry" />
        </mxCell>
        <mxCell id="iIzhdWrlAodf3DmETpUd-13" style="edgeStyle=orthogonalEdgeStyle;rounded=1;html=1;labelBackgroundColor=none;startArrow=none;startFill=0;startSize=5;endArrow=classicThin;endFill=1;endSize=5;jettySize=auto;orthogonalLoop=1;strokeWidth=1;fontFamily=Courier New;fontSize=8;exitX=0.5;exitY=1;exitDx=0;exitDy=0;entryX=0.5;entryY=0;entryDx=0;entryDy=0;" parent="1" source="iIzhdWrlAodf3DmETpUd-11" target="iIzhdWrlAodf3DmETpUd-12" edge="1">
          <mxGeometry relative="1" as="geometry">
            <mxPoint x="285" y="242.43" as="sourcePoint" />
            <mxPoint x="515" y="242.43" as="targetPoint" />
          </mxGeometry>
        </mxCell>
        <mxCell id="iIzhdWrlAodf3DmETpUd-14" value="is client registered" style="rhombus;whiteSpace=wrap;html=1;rounded=0;shadow=0;labelBackgroundColor=none;strokeWidth=1;fontFamily=Courier New;fontSize=8;align=center;" parent="1" vertex="1">
          <mxGeometry x="325" y="423" width="80" height="60" as="geometry" />
        </mxCell>
        <mxCell id="iIzhdWrlAodf3DmETpUd-15" style="edgeStyle=orthogonalEdgeStyle;rounded=1;html=1;labelBackgroundColor=none;startArrow=none;startFill=0;startSize=5;endArrow=classicThin;endFill=1;endSize=5;jettySize=auto;orthogonalLoop=1;strokeWidth=1;fontFamily=Courier New;fontSize=8;exitX=0.5;exitY=1;exitDx=0;exitDy=0;" parent="1" source="iIzhdWrlAodf3DmETpUd-12" target="iIzhdWrlAodf3DmETpUd-14" edge="1">
          <mxGeometry relative="1" as="geometry">
            <mxPoint x="305" y="337.71" as="sourcePoint" />
            <mxPoint x="295" y="338" as="targetPoint" />
          </mxGeometry>
        </mxCell>
        <mxCell id="iIzhdWrlAodf3DmETpUd-16" value="call api&lt;span style=&quot;background-color: initial;&quot;&gt;&amp;nbsp;&#39;/auth/access-token&#39;,&lt;/span&gt;&lt;div&gt;payload:&amp;nbsp; &amp;nbsp; &amp;nbsp; &amp;nbsp;&amp;nbsp;&lt;br&gt;{ provider: { google: googleResponse } }&lt;/div&gt;" style="rounded=1;whiteSpace=wrap;html=1;shadow=0;labelBackgroundColor=none;strokeWidth=1;fontFamily=Courier New;fontSize=8;align=left;" parent="1" vertex="1">
          <mxGeometry x="290" y="528" width="150" height="60" as="geometry" />
        </mxCell>
        <mxCell id="iIzhdWrlAodf3DmETpUd-17" style="edgeStyle=orthogonalEdgeStyle;rounded=1;html=1;labelBackgroundColor=none;startArrow=none;startFill=0;startSize=5;endArrow=classicThin;endFill=1;endSize=5;jettySize=auto;orthogonalLoop=1;strokeWidth=1;fontFamily=Courier New;fontSize=8;exitX=0.5;exitY=1;exitDx=0;exitDy=0;entryX=0.5;entryY=0;entryDx=0;entryDy=0;" parent="1" source="iIzhdWrlAodf3DmETpUd-14" target="iIzhdWrlAodf3DmETpUd-16" edge="1">
          <mxGeometry relative="1" as="geometry">
            <mxPoint x="365" y="503" as="sourcePoint" />
            <mxPoint x="305" y="454" as="targetPoint" />
          </mxGeometry>
        </mxCell>
        <mxCell id="iIzhdWrlAodf3DmETpUd-18" value="False" style="text;html=1;strokeColor=none;fillColor=none;align=center;verticalAlign=middle;whiteSpace=wrap;rounded=0;fontFamily=Courier New;" parent="1" vertex="1">
          <mxGeometry x="415" y="428" width="60" height="30" as="geometry" />
        </mxCell>
        <mxCell id="iIzhdWrlAodf3DmETpUd-19" style="edgeStyle=orthogonalEdgeStyle;rounded=1;html=1;labelBackgroundColor=none;startArrow=none;startFill=0;startSize=5;endArrow=classicThin;endFill=1;endSize=5;jettySize=auto;orthogonalLoop=1;strokeWidth=1;fontFamily=Courier New;fontSize=8" parent="1" source="iIzhdWrlAodf3DmETpUd-10" target="iIzhdWrlAodf3DmETpUd-21" edge="1">
          <mxGeometry relative="1" as="geometry" />
        </mxCell>
        <mxCell id="iIzhdWrlAodf3DmETpUd-21" value="Google send response to client contain JWT" style="rounded=1;whiteSpace=wrap;html=1;shadow=0;labelBackgroundColor=none;strokeWidth=1;fontFamily=Courier New;fontSize=8;align=center;" parent="1" vertex="1">
          <mxGeometry x="315" y="173" width="100" height="60" as="geometry" />
        </mxCell>
        <mxCell id="iIzhdWrlAodf3DmETpUd-22" value="&lt;span style=&quot;&quot;&gt;call api&lt;/span&gt;&lt;span style=&quot;background-color: initial;&quot;&gt;&amp;nbsp;&#39;/auth/create-account&#39;,&lt;/span&gt;&lt;div style=&quot;&quot;&gt;payload:&amp;nbsp; &amp;nbsp; &amp;nbsp; &amp;nbsp;&amp;nbsp;&lt;br&gt;{ provider: { google: googleResponse } }&lt;/div&gt;" style="rounded=1;whiteSpace=wrap;html=1;shadow=0;labelBackgroundColor=none;strokeWidth=1;fontFamily=Courier New;fontSize=8;align=left;" parent="1" vertex="1">
          <mxGeometry x="495" y="423" width="160" height="60" as="geometry" />
        </mxCell>
        <mxCell id="iIzhdWrlAodf3DmETpUd-23" style="edgeStyle=orthogonalEdgeStyle;rounded=1;html=1;labelBackgroundColor=none;startArrow=none;startFill=0;startSize=5;endArrow=classicThin;endFill=1;endSize=5;jettySize=auto;orthogonalLoop=1;strokeWidth=1;fontFamily=Courier New;fontSize=8;exitX=1;exitY=0.5;exitDx=0;exitDy=0;entryX=-0.022;entryY=0.5;entryDx=0;entryDy=0;entryPerimeter=0;" parent="1" source="iIzhdWrlAodf3DmETpUd-14" target="iIzhdWrlAodf3DmETpUd-22" edge="1">
          <mxGeometry relative="1" as="geometry">
            <mxPoint x="305" y="433" as="sourcePoint" />
            <mxPoint x="305" y="458" as="targetPoint" />
          </mxGeometry>
        </mxCell>
        <mxCell id="iIzhdWrlAodf3DmETpUd-24" style="edgeStyle=orthogonalEdgeStyle;rounded=1;html=1;labelBackgroundColor=none;startArrow=none;startFill=0;startSize=5;endArrow=classicThin;endFill=1;endSize=5;jettySize=auto;orthogonalLoop=1;strokeWidth=1;fontFamily=Courier New;fontSize=8;exitX=0.5;exitY=1;exitDx=0;exitDy=0;" parent="1" source="iIzhdWrlAodf3DmETpUd-21" target="iIzhdWrlAodf3DmETpUd-11" edge="1">
          <mxGeometry relative="1" as="geometry">
            <mxPoint x="375" y="168" as="sourcePoint" />
            <mxPoint x="375" y="183" as="targetPoint" />
          </mxGeometry>
        </mxCell>
        <mxCell id="iIzhdWrlAodf3DmETpUd-25" value="True" style="text;html=1;strokeColor=none;fillColor=none;align=center;verticalAlign=middle;whiteSpace=wrap;rounded=0;fontFamily=Courier New;" parent="1" vertex="1">
          <mxGeometry x="355" y="483" width="60" height="30" as="geometry" />
        </mxCell>
        <mxCell id="iIzhdWrlAodf3DmETpUd-41" value="Client received access token cookie" style="rounded=1;whiteSpace=wrap;html=1;shadow=0;labelBackgroundColor=none;strokeWidth=1;fontFamily=Courier New;fontSize=8;align=left;" parent="1" vertex="1">
          <mxGeometry x="315" y="840" width="100" height="60" as="geometry" />
        </mxCell>
        <mxCell id="iIzhdWrlAodf3DmETpUd-42" style="edgeStyle=orthogonalEdgeStyle;rounded=1;html=1;labelBackgroundColor=none;startArrow=none;startFill=0;startSize=5;endArrow=classicThin;endFill=1;endSize=5;jettySize=auto;orthogonalLoop=1;strokeWidth=1;fontFamily=Courier New;fontSize=8;exitX=0.5;exitY=1;exitDx=0;exitDy=0;entryX=0.5;entryY=0;entryDx=0;entryDy=0;" parent="1" source="iIzhdWrlAodf3DmETpUd-16" target="iIzhdWrlAodf3DmETpUd-41" edge="1">
          <mxGeometry relative="1" as="geometry">
            <mxPoint x="375" y="493" as="sourcePoint" />
            <mxPoint x="375" y="538" as="targetPoint" />
          </mxGeometry>
        </mxCell>
        <mxCell id="iIzhdWrlAodf3DmETpUd-43" style="edgeStyle=orthogonalEdgeStyle;rounded=1;html=1;labelBackgroundColor=none;startArrow=none;startFill=0;startSize=5;endArrow=classicThin;endFill=1;endSize=5;jettySize=auto;orthogonalLoop=1;strokeWidth=1;fontFamily=Courier New;fontSize=8;exitX=0.5;exitY=1;exitDx=0;exitDy=0;entryX=1;entryY=0.5;entryDx=0;entryDy=0;" parent="1" source="iIzhdWrlAodf3DmETpUd-22" target="iIzhdWrlAodf3DmETpUd-41" edge="1">
          <mxGeometry relative="1" as="geometry">
            <mxPoint x="375" y="598" as="sourcePoint" />
            <mxPoint x="375" y="633" as="targetPoint" />
          </mxGeometry>
        </mxCell>
        <mxCell id="iIzhdWrlAodf3DmETpUd-44" value="User click sign up with google button in register page" style="rounded=1;whiteSpace=wrap;html=1;shadow=0;labelBackgroundColor=none;strokeWidth=1;fontFamily=Courier New;fontSize=8;align=center;" parent="1" vertex="1">
          <mxGeometry x="465" y="90" width="100" height="60" as="geometry" />
        </mxCell>
        <mxCell id="iIzhdWrlAodf3DmETpUd-53" style="edgeStyle=orthogonalEdgeStyle;rounded=1;html=1;labelBackgroundColor=none;startArrow=none;startFill=0;startSize=5;endArrow=classicThin;endFill=1;endSize=5;jettySize=auto;orthogonalLoop=1;strokeWidth=1;fontFamily=Courier New;fontSize=8;entryX=1;entryY=0.5;entryDx=0;entryDy=0;exitX=0.5;exitY=1;exitDx=0;exitDy=0;" parent="1" source="iIzhdWrlAodf3DmETpUd-44" target="iIzhdWrlAodf3DmETpUd-21" edge="1">
          <mxGeometry relative="1" as="geometry" />
        </mxCell>
        <mxCell id="iIzhdWrlAodf3DmETpUd-66" value="User click google sign in prompt" style="rounded=1;whiteSpace=wrap;html=1;shadow=0;labelBackgroundColor=none;strokeWidth=1;fontFamily=Courier New;fontSize=8;align=center;" parent="1" vertex="1">
          <mxGeometry x="645" y="90" width="100" height="60" as="geometry" />
        </mxCell>
        <mxCell id="iIzhdWrlAodf3DmETpUd-67" style="edgeStyle=orthogonalEdgeStyle;rounded=1;html=1;labelBackgroundColor=none;startArrow=none;startFill=0;startSize=5;endArrow=classicThin;endFill=1;endSize=5;jettySize=auto;orthogonalLoop=1;strokeWidth=1;fontFamily=Courier New;fontSize=8;entryX=1;entryY=0.5;entryDx=0;entryDy=0;exitX=0.5;exitY=1;exitDx=0;exitDy=0;" parent="1" source="iIzhdWrlAodf3DmETpUd-66" target="iIzhdWrlAodf3DmETpUd-21" edge="1">
          <mxGeometry relative="1" as="geometry">
            <mxPoint x="525" y="138" as="sourcePoint" />
            <mxPoint x="425" y="213" as="targetPoint" />
          </mxGeometry>
        </mxCell>
        <mxCell id="iIzhdWrlAodf3DmETpUd-69" value="&lt;div style=&quot;font-size: 7px;&quot;&gt;googleResponse Object:&lt;/div&gt;&lt;div style=&quot;font-size: 7px;&quot;&gt;{&lt;/div&gt;&lt;div style=&quot;font-size: 7px;&quot;&gt;&amp;nbsp; &amp;nbsp; &quot;clientId&quot;: &quot;996478769136-01ev5s9l3suq9lj1qqbn7fh4uv942omc.apps.googleusercontent.com&quot;,&lt;/div&gt;&lt;div style=&quot;font-size: 7px;&quot;&gt;&amp;nbsp; &amp;nbsp; &quot;credential&quot;: &quot;eyJhbGciOiJSUzI1NiIsImtpZCI6ImVlMWI5Zjg4Y2ZlMzE1MWRkZDI4NGE2MWJmOGNlY2Y2NTliMTMwY2YiLCJ0eXAiOiJKV1QifQ.eyJpc3MiOiJodHRwczovL2FjY291bnRzLmdvb2dsZS5jb20iLCJuYmYiOjE2NjY2OTI4OTAsImF1ZCI6Ijk5NjQ3ODc2OTEzNi0wMWV2NXM5bDNzdXE5bGoxcXFibjdmaDR1djk0Mm9tYy5hcHBzLmdvb2dsZXVzZXJjb250ZW50LmNvbSIsInN1YiI6IjExMjM2MTkyMTE5NzkyNjI3NjY5MCIsImVtYWlsIjoidGVzdG15aXo5NUBnbWFpbC5jb20iLCJlbWFpbF92ZXJpZmllZCI6dHJ1ZSwiYXpwIjoiOTk2NDc4NzY5MTM2LTAxZXY1czlsM3N1cTlsajFxcWJuN2ZoNHV2OTQyb21jLmFwcHMuZ29vZ2xldXNlcmNvbnRlbnQuY29tIiwibmFtZSI6Ikl2YW4gWnVsZmlrYXIiLCJwaWN0dXJlIjoiaHR0cHM6Ly9saDMuZ29vZ2xldXNlcmNvbnRlbnQuY29tL2EvQUxtNXd1MEhrdVJ4eDBJZ3Iyamo4WGg4S2tvRFJ0TzdROVJlNVdxMzhnUzk9czk2LWMiLCJnaXZlbl9uYW1lIjoiSXZhbiIsImZhbWlseV9uYW1lIjoiWnVsZmlrYXIiLCJpYXQiOjE2NjY2OTMxOTAsImV4cCI6MTY2NjY5Njc5MCwianRpIjoiMTlkZjI4ZmEwYjM2Zjg5NjIwZDg1ZWRhMjQ4Yjc0NmJhZmQ3MzE4OCJ9.l7niGvh40XAFcxMEI4wID3WxzclPGpVL6kiLe-Ec9rtWOctbYAp3fEoKwbg1jtRiyeChNMjThk_Vish-aJJ6qI6FJfBTgh6I25N9OwBNVu57lZ8SpiGfkUfl1AqrfyaiJ2Ng5EYI_3-376jM6Kp6ZDiAlNHm1MITpLet4JVo_QRSD_teRG0s396NMT_JycyrWevY14ZbO9la1eG8Y3QsPI6CLxSX3BtFq9EWIaQ0cvflsCx6ECUGnQnJGLtBqF5lkNX3QkHoTf27QYEUhFWsxJVYkIySpBOh_HoARjNm-b66vr1TFiLk9AVe1pKa4UGPfBrrHY2PsUT4NYu7jIHGDQ&quot;,&lt;/div&gt;&lt;div style=&quot;font-size: 7px;&quot;&gt;&amp;nbsp; &amp;nbsp; &quot;select_by&quot;: &quot;btn&quot;&lt;/div&gt;&lt;div style=&quot;font-size: 7px;&quot;&gt;}&lt;/div&gt;" style="text;html=1;strokeColor=none;fillColor=none;align=left;verticalAlign=middle;rounded=0;fontFamily=Courier New;fontSize=7;" parent="1" vertex="1">
          <mxGeometry x="730" y="153" width="300" height="80" as="geometry" />
        </mxCell>
        <mxCell id="iIzhdWrlAodf3DmETpUd-70" value="Decoded googleResponse.credential&lt;br&gt;{&lt;br&gt;&amp;nbsp; &amp;nbsp; &quot;iss&quot;: &quot;https://accounts.google.com&quot;,&lt;br&gt;&amp;nbsp; &amp;nbsp; &quot;nbf&quot;: 1666692890,&lt;br&gt;&amp;nbsp; &amp;nbsp; &quot;aud&quot;: &quot;996478769136-01ev5s9l3suq9lj1qqbn7fh4uv942omc.apps.googleusercontent.com&quot;,&lt;br&gt;&amp;nbsp; &amp;nbsp; &quot;sub&quot;: &quot;112361921197926276690&quot;,&lt;br&gt;&amp;nbsp; &amp;nbsp; &quot;email&quot;: &quot;testmyiz95@gmail.com&quot;,&lt;br&gt;&amp;nbsp; &amp;nbsp; &quot;email_verified&quot;: true,&lt;br&gt;&amp;nbsp; &amp;nbsp; &quot;azp&quot;: &quot;996478769136-01ev5s9l3suq9lj1qqbn7fh4uv942omc.apps.googleusercontent.com&quot;,&lt;br&gt;&amp;nbsp; &amp;nbsp; &quot;name&quot;: &quot;Ivan Zulfikar&quot;,&lt;br&gt;&amp;nbsp; &amp;nbsp; &quot;picture&quot;: &quot;https://lh3.googleusercontent.com/a/ALm5wu0HkuRxx0Igr2jj8Xh8KkoDRtO7Q9Re5Wq38gS9=s96-c&quot;,&lt;br&gt;&amp;nbsp; &amp;nbsp; &quot;given_name&quot;: &quot;Ivan&quot;,&lt;br&gt;&amp;nbsp; &amp;nbsp; &quot;family_name&quot;: &quot;Zulfikar&quot;,&lt;br&gt;&amp;nbsp; &amp;nbsp; &quot;iat&quot;: 1666693190,&lt;br&gt;&amp;nbsp; &amp;nbsp; &quot;exp&quot;: 1666696790,&lt;br&gt;&amp;nbsp; &amp;nbsp; &quot;jti&quot;: &quot;19df28fa0b36f89620d85eda248b746bafd73188&quot;&lt;br&gt;}" style="text;whiteSpace=wrap;html=1;fontSize=7;fontFamily=Courier New;" parent="1" vertex="1">
          <mxGeometry x="730" y="238" width="470" height="160" as="geometry" />
        </mxCell>
        <mxCell id="SHiufC7lcb4nteC2MSlH-1" value="Userdata saved in database:&lt;br&gt;&lt;div&gt;&amp;nbsp; &quot;is_passwordless&quot;: true,&lt;/div&gt;&lt;div&gt;&lt;span style=&quot;background-color: initial;&quot;&gt;&amp;nbsp; &quot;verified_dt&quot;: null,&lt;/span&gt;&lt;br&gt;&lt;/div&gt;" style="rounded=1;whiteSpace=wrap;html=1;shadow=0;labelBackgroundColor=none;strokeWidth=1;fontFamily=Courier New;fontSize=8;align=left;" vertex="1" parent="1">
          <mxGeometry x="730" y="423" width="160" height="60" as="geometry" />
        </mxCell>
        <mxCell id="SHiufC7lcb4nteC2MSlH-2" style="edgeStyle=orthogonalEdgeStyle;rounded=1;html=1;labelBackgroundColor=none;startArrow=none;startFill=0;startSize=5;endArrow=classicThin;endFill=1;endSize=5;jettySize=auto;orthogonalLoop=1;strokeWidth=1;fontFamily=Courier New;fontSize=8;exitX=1;exitY=0.5;exitDx=0;exitDy=0;entryX=0;entryY=0.5;entryDx=0;entryDy=0;" edge="1" parent="1" source="iIzhdWrlAodf3DmETpUd-22" target="SHiufC7lcb4nteC2MSlH-1">
          <mxGeometry relative="1" as="geometry">
            <mxPoint x="415" y="463" as="sourcePoint" />
            <mxPoint x="501.48000000000025" y="463" as="targetPoint" />
          </mxGeometry>
        </mxCell>
        <mxCell id="SHiufC7lcb4nteC2MSlH-3" value="Backend verify and decode JWT with SDK provided.&lt;br&gt;&lt;br&gt;Probably add googleResponse" style="rounded=1;whiteSpace=wrap;html=1;shadow=0;labelBackgroundColor=none;strokeWidth=1;fontFamily=Courier New;fontSize=8;align=left;" vertex="1" parent="1">
          <mxGeometry x="290" y="660" width="150" height="80" as="geometry" />
        </mxCell>
      </root>
    </mxGraphModel>
  </diagram>
</mxfile>
